Coordinates
version=1
nRows=9
nColumns=26
inDegrees=yes

Units are S.I. units (second, meters, Newtons, ...)
Angles are in degrees.

endheader
time	pelvis_tilt	pelvis_list	pelvis_rotation	pelvis_tx	pelvis_ty	pelvis_tz	hip_flexion_r	hip_adduction_r	hip_rotation_r	knee_angle_r	knee_angle_r_beta	ankle_angle_r	subtalar_angle_r	mtp_angle_r	hip_flexion_l	hip_adduction_l	hip_rotation_l	knee_angle_l	knee_angle_l_beta	ankle_angle_l	subtalar_angle_l	mtp_angle_l	lumbar_extension	lumbar_bending	lumbar_rotation
    189.75202360	     -4.01180231	      2.53092591	     -6.74420119	      0.30973637	      1.04341919	      0.29538666	     26.26844157	      4.82095627	      7.22477745	     29.46627344	     29.46627344	      4.72441943	    -15.47025349	      0.00000000	     -0.95618114	      3.80129941	     -5.54590812	     69.81470881	     69.81470881	    -11.29585822	    -16.36904711	      0.00000000	    -13.85911615	      1.11896463	      2.17792853
    189.76202360	     -4.57085971	      2.04197223	     -7.16947119	      0.30510910	      1.03380808	      0.29575826	     27.46429433	      5.93593766	      7.51044082	     33.96070393	     33.96070393	      7.64598989	    -17.12752182	      0.00000000	      2.50692238	      2.53301069	     -6.21593685	     74.46575022	     74.46575022	    -10.10395800	    -17.05512535	      0.00000000	    -13.90498757	      1.82269243	      3.18306723
    189.77202360	     -5.42446256	      1.51428822	     -7.60225401	      0.29953719	      1.02513994	      0.29590621	     28.72926953	      6.80832058	      7.41728627	     37.96711992	     37.96711992	     10.48514417	    -17.44825729	      0.00000000	      6.48870718	      1.23371019	     -6.60335709	     78.81543186	     78.81543186	     -9.20109369	    -17.77016306	      0.00000000	    -13.80982287	      2.61998611	      4.11066667
    189.78202360	     -6.09196639	      0.97168961	     -7.92168821	      0.29434105	      1.01826884	      0.29565164	     29.20144338	      7.25504151	      6.89193048	     41.13292817	     41.13292817	     14.09904800	    -15.81943152	      0.00000000	     10.31054325	      0.10507779	     -6.50676301	     82.54094791	     82.54094791	     -8.45818810	    -18.54030201	      0.00000000	    -13.92218912	      3.45246751	      4.95166344
    189.79202360	     -6.45679805	      0.45192573	     -8.11043084	      0.29010020	      1.01335859	      0.29539937	     28.66217851	      7.51738979	      6.55464953	     43.11045280	     43.11045280	     17.13183178	    -14.46959965	      0.00000000	     13.75710384	     -0.89728701	     -6.11012496	     85.56690498	     85.56690498	     -7.58624375	    -18.77980602	      0.00000000	    -14.20884835	      4.17880077	      5.76411192
    189.80202360	     -6.65432622	      0.07666854	     -8.22345288	      0.28649203	      1.01020593	      0.29524066	     27.38772372	      7.58813829	      6.47732450	     44.11377723	     44.11377723	     19.53587011	    -13.67390548	      0.00000000	     16.97546341	     -1.69116519	     -5.65254739	     87.86303226	     87.86303226	     -6.90803273	    -19.10071430	      0.00000000	    -14.47479830	      4.66158160	      6.74808955
    189.81202360	     -6.87676720	      0.13073328	     -7.95553312	      0.28336412	      1.00851809	      0.29468013	     25.95244611	      6.93681902	      6.00354611	     44.79956839	     44.79956839	     22.05667423	    -12.17916601	      0.00000000	     20.23615667	     -1.83410618	     -4.91817987	     89.46060989	     89.46060989	     -5.92239444	    -19.06840847	      0.00000000	    -14.45724049	      4.67922661	      7.18210371
    189.82202360	     -6.95588290	     -0.06983572	     -7.58758633	      0.28103891	      1.00877652	      0.29482372	     23.86232479	      6.58226714	      5.51091110	     44.61253218	     44.61253218	     23.67024888	    -11.17405547	      0.00000000	     23.11466046	     -2.23874183	     -4.13637193	     90.31424499	     90.31424499	     -5.11467123	    -19.20840010	      0.00000000	    -14.51693837	      4.83702189	      7.72792468
    189.83202360	     -7.13426705	      0.20426612	     -7.34828643	      0.27933655	      1.01019299	      0.29544982	     21.62454583	      5.94998630	      5.52136526	     43.85574156	     43.85574156	     24.35314799	    -11.02665780	      0.00000000	     25.90279185	     -2.17273381	     -3.74533414	     90.35096798	     90.35096798	     -4.49242905	    -19.44416641	      0.00000000	    -14.31798956	      4.32041664	      8.27337480
